<svg width="355" height="262" viewBox="0 0 355 262" fill="none" xmlns="http://www.w3.org/2000/svg">
<rect width="355" height="262" fill="#1DDFA6"/>
<path d="M134.077 131.162C133.682 122.561 126.954 118.257 123.639 117.18C125.571 116.514 128.737 116.448 131.064 116.813C133.39 117.178 137.544 118.953 139.414 121.451C141.283 123.949 144.098 127.169 143.21 135.017C142.5 141.295 138.107 145.894 135.999 147.409C135.238 148.193 132.603 150.092 128.152 151.412C122.589 153.062 116.367 150.831 113.895 149.696C111.918 148.788 109.189 146.194 108.071 145.011C107.675 144.566 106.555 143.114 105.243 140.864C104.331 139.299 103.755 136.756 103.439 134.727C103.286 134.003 103.185 133.245 103.168 132.479C103.212 133.045 103.301 133.837 103.439 134.727C103.906 136.932 104.857 138.823 105.394 139.652C111 147.306 115.603 147.332 120.276 147.103C124.948 146.874 134.572 141.914 134.077 131.162Z" fill="black"/>
<path d="M112.304 130.838C112.699 139.439 119.429 143.744 122.745 144.821C120.813 145.486 117.646 145.553 115.318 145.188C112.991 144.823 108.836 143.047 106.966 140.549C105.096 138.051 102.281 134.831 103.169 126.983C103.879 120.705 108.273 116.106 110.381 114.591C111.143 113.807 113.779 111.908 118.23 110.588C123.795 108.938 130.019 111.169 132.491 112.304C134.469 113.212 137.199 115.806 138.316 116.989C138.713 117.434 139.833 118.886 141.146 121.136C142.058 122.701 142.634 125.244 142.95 127.273C143.103 127.997 143.204 128.756 143.221 129.521C143.177 128.955 143.088 128.163 142.95 127.273C142.483 125.068 141.532 123.177 140.994 122.348C135.387 114.694 130.782 114.669 126.109 114.897C121.436 115.126 111.809 120.086 112.304 130.838Z" fill="#03309F"/>
<path d="M157.26 127.629C155.1 127.629 153.294 126.93 151.845 125.534C150.409 124.137 149.691 122.319 149.691 120.079C149.691 117.997 150.428 116.211 151.904 114.722C153.393 113.233 155.179 112.489 157.26 112.489C159.158 112.489 160.732 113.029 161.984 114.11L160.581 115.968C159.645 115.19 158.532 114.801 157.241 114.801C155.765 114.815 154.52 115.335 153.505 116.363C152.491 117.377 151.983 118.616 151.983 120.079C151.983 121.554 152.497 122.8 153.525 123.814C154.553 124.829 155.798 125.336 157.26 125.336C158.539 125.336 159.645 124.947 160.581 124.17L161.925 125.968C160.647 127.075 159.092 127.629 157.26 127.629ZM165.294 122.51C165.294 123.327 165.571 124.018 166.124 124.585C166.691 125.152 167.382 125.435 168.199 125.435C169.016 125.435 169.701 125.152 170.255 124.585C170.821 124.018 171.105 123.327 171.105 122.51C171.105 121.706 170.821 121.027 170.255 120.474C169.688 119.907 169.003 119.624 168.199 119.624C167.396 119.624 166.71 119.907 166.144 120.474C165.577 121.027 165.294 121.706 165.294 122.51ZM163.08 122.51C163.08 121.1 163.574 119.901 164.563 118.912C165.564 117.924 166.776 117.43 168.199 117.43C169.596 117.43 170.788 117.924 171.777 118.912C172.778 119.901 173.279 121.1 173.279 122.51C173.279 123.933 172.785 125.145 171.796 126.146C170.808 127.135 169.609 127.629 168.199 127.629C166.776 127.629 165.564 127.135 164.563 126.146C163.574 125.145 163.08 123.933 163.08 122.51ZM174.723 127.471V117.588H176.778V118.122C177.411 117.661 178.175 117.43 179.071 117.43C180.349 117.43 181.397 117.819 182.214 118.596C183.03 119.374 183.439 120.388 183.439 121.64V127.471H181.245V121.778C181.245 121.199 181.028 120.691 180.593 120.256C180.171 119.822 179.664 119.604 179.071 119.604C178.452 119.604 177.938 119.776 177.529 120.118C177.121 120.461 176.91 120.981 176.897 121.68V127.471H174.723ZM185.068 127.471V117.588H187.124V118.122C187.756 117.661 188.521 117.43 189.417 117.43C190.695 117.43 191.742 117.819 192.559 118.596C193.376 119.374 193.785 120.388 193.785 121.64V127.471H191.591V121.778C191.591 121.199 191.373 120.691 190.938 120.256C190.517 119.822 190.009 119.604 189.417 119.604C188.797 119.604 188.283 119.776 187.875 120.118C187.466 120.461 187.256 120.981 187.242 121.68V127.471H185.068ZM200.434 125.553C201.409 125.553 202.358 125.283 203.28 124.743L204.17 126.384C203.023 127.214 201.739 127.629 200.316 127.629C198.866 127.629 197.647 127.141 196.659 126.166C195.684 125.178 195.196 123.959 195.196 122.51C195.196 121.1 195.664 119.907 196.6 118.932C197.548 117.944 198.728 117.45 200.138 117.45C201.521 117.45 202.621 117.904 203.438 118.814C204.255 119.723 204.664 120.876 204.664 122.272C204.664 122.496 204.651 122.846 204.624 123.32H197.588C197.548 123.32 197.529 123.34 197.529 123.379C197.674 124.038 198.01 124.565 198.537 124.96C199.077 125.356 199.709 125.553 200.434 125.553ZM200.059 119.466C199.413 119.466 198.827 119.696 198.3 120.158C197.786 120.619 197.529 121.093 197.529 121.581C197.529 121.607 197.555 121.62 197.608 121.62H202.332L202.411 121.6C202.411 121.073 202.193 120.586 201.758 120.138C201.337 119.69 200.77 119.466 200.059 119.466ZM211.01 125.435C212.144 125.435 212.987 124.941 213.54 123.952L215.517 124.822C215.108 125.679 214.496 126.364 213.679 126.878C212.875 127.378 211.979 127.629 210.991 127.629C209.568 127.629 208.355 127.135 207.354 126.146C206.366 125.145 205.872 123.933 205.872 122.51C205.872 121.1 206.366 119.901 207.354 118.912C208.355 117.924 209.568 117.43 210.991 117.43C211.808 117.43 212.585 117.634 213.323 118.043C214.061 118.438 214.667 118.952 215.141 119.584L213.481 120.83C212.822 120.026 211.999 119.624 211.01 119.624C210.207 119.624 209.521 119.907 208.955 120.474C208.388 121.027 208.105 121.706 208.105 122.51C208.105 123.327 208.382 124.018 208.935 124.585C209.502 125.152 210.193 125.435 211.01 125.435ZM219.267 117.667V114.722H221.461V117.667H224.01V119.644H221.461V127.471H219.267V119.644H216.678V117.667H219.267ZM230.371 125.553C231.346 125.553 232.294 125.283 233.217 124.743L234.106 126.384C232.96 127.214 231.675 127.629 230.252 127.629C228.803 127.629 227.584 127.141 226.596 126.166C225.621 125.178 225.133 123.959 225.133 122.51C225.133 121.1 225.601 119.907 226.536 118.932C227.485 117.944 228.664 117.45 230.074 117.45C231.458 117.45 232.558 117.904 233.375 118.814C234.192 119.723 234.6 120.876 234.6 122.272C234.6 122.496 234.587 122.846 234.561 123.32H227.525C227.485 123.32 227.465 123.34 227.465 123.379C227.61 124.038 227.946 124.565 228.473 124.96C229.014 125.356 229.646 125.553 230.371 125.553ZM229.995 119.466C229.35 119.466 228.763 119.696 228.236 120.158C227.722 120.619 227.465 121.093 227.465 121.581C227.465 121.607 227.492 121.62 227.544 121.62H232.268L232.347 121.6C232.347 121.073 232.13 120.586 231.695 120.138C231.273 119.69 230.707 119.466 229.995 119.466ZM244.663 117.608V127.471H242.587V126.917C241.981 127.392 241.224 127.629 240.315 127.629C239.036 127.629 237.989 127.24 237.172 126.463C236.355 125.672 235.947 124.651 235.947 123.399V117.608H238.121V123.261C238.121 123.854 238.338 124.368 238.773 124.802C239.208 125.224 239.715 125.435 240.295 125.435C240.914 125.435 241.428 125.264 241.836 124.921C242.258 124.578 242.469 124.064 242.469 123.379V117.608H244.663ZM246.273 127.471V117.588H248.368V118.161C248.948 117.713 249.758 117.47 250.799 117.43H251.788V119.644H250.878C250.141 119.657 249.554 119.835 249.119 120.177C248.685 120.507 248.461 121.008 248.447 121.68V127.471H246.273Z" fill="black"/>
<path d="M150.744 136.376L149.99 134.818C150.857 133.962 151.842 133.533 152.944 133.533C153.929 133.533 154.716 133.822 155.305 134.4C155.894 134.968 156.188 135.674 156.188 136.52C156.188 136.991 156.065 137.441 155.819 137.869C155.583 138.287 155.289 138.613 154.936 138.849C154.904 138.859 154.887 138.886 154.887 138.929C154.887 138.94 154.914 138.961 154.968 138.993C156.242 139.668 156.879 140.69 156.879 142.061C156.879 143.11 156.52 143.998 155.803 144.726C155.086 145.444 154.165 145.802 153.041 145.802C151.831 145.802 150.76 145.353 149.829 144.453L150.712 142.847C151.451 143.586 152.206 143.955 152.976 143.955C153.576 143.955 154.063 143.768 154.438 143.393C154.813 143.008 155 142.548 155 142.012C155 141.434 154.78 140.958 154.341 140.583C153.913 140.198 153.362 139.978 152.687 139.925L151.788 139.893V138.303L152.495 138.271C153.084 138.228 153.533 138.051 153.844 137.741C154.165 137.42 154.325 137.039 154.325 136.601C154.325 136.258 154.192 135.958 153.924 135.701C153.667 135.444 153.303 135.316 152.832 135.316C152.115 135.316 151.419 135.669 150.744 136.376ZM159.04 141.643C159.062 140.808 159.249 140.107 159.602 139.539L163.424 133.501L165.014 134.497C164.832 134.807 164.549 135.252 164.163 135.83C163.778 136.408 163.505 136.831 163.344 137.098L163.071 137.548C163.125 137.537 163.226 137.532 163.376 137.532C164.511 137.585 165.469 137.992 166.251 138.752C167.043 139.502 167.439 140.465 167.439 141.643C167.439 142.81 167.032 143.8 166.219 144.614C165.405 145.428 164.42 145.834 163.264 145.834C162.076 145.834 161.075 145.433 160.261 144.63C159.447 143.816 159.04 142.821 159.04 141.643ZM160.919 141.643C160.919 142.317 161.139 142.874 161.578 143.313C162.017 143.752 162.573 143.972 163.248 143.972C163.901 143.972 164.447 143.752 164.886 143.313C165.335 142.874 165.56 142.317 165.56 141.643C165.56 140.99 165.335 140.439 164.886 139.989C164.436 139.539 163.89 139.314 163.248 139.314C162.573 139.314 162.017 139.539 161.578 139.989C161.139 140.428 160.919 140.979 160.919 141.643ZM172.877 145.834C171.796 145.834 170.853 145.444 170.05 144.662C169.258 143.881 168.862 142.938 168.862 141.836V137.548C168.862 136.477 169.258 135.546 170.05 134.754C170.843 133.951 171.785 133.549 172.877 133.549C173.926 133.549 174.852 133.94 175.655 134.722C176.469 135.492 176.875 136.435 176.875 137.548V141.836C176.875 142.917 176.479 143.854 175.687 144.646C174.906 145.438 173.969 145.834 172.877 145.834ZM172.877 135.444C172.288 135.444 171.779 135.664 171.351 136.103C170.923 136.531 170.709 137.023 170.709 137.58V141.804C170.709 142.36 170.923 142.858 171.351 143.297C171.79 143.736 172.299 143.955 172.877 143.955C173.455 143.955 173.953 143.741 174.37 143.313C174.788 142.885 174.997 142.382 174.997 141.804V137.58C174.997 137.002 174.788 136.504 174.37 136.087C173.953 135.658 173.455 135.444 172.877 135.444ZM182.988 145.706V137.676H184.771V145.706H182.988ZM184.514 136.552C184.343 136.724 184.134 136.809 183.888 136.809C183.641 136.809 183.427 136.724 183.245 136.552C183.074 136.381 182.988 136.167 182.988 135.91C182.988 135.674 183.074 135.471 183.245 135.3C183.427 135.128 183.641 135.043 183.888 135.043C184.123 135.043 184.326 135.134 184.498 135.316C184.68 135.487 184.771 135.685 184.771 135.91C184.771 136.156 184.685 136.37 184.514 136.552ZM186.078 145.706V137.676H187.748V138.11C188.262 137.735 188.883 137.548 189.611 137.548C190.649 137.548 191.501 137.864 192.164 138.495C192.828 139.127 193.16 139.951 193.16 140.969V145.706H191.377V141.081C191.377 140.61 191.201 140.198 190.848 139.844C190.505 139.491 190.093 139.314 189.611 139.314C189.108 139.314 188.69 139.454 188.358 139.732C188.027 140.01 187.855 140.433 187.845 141.001V145.706H186.078ZM198.531 144.052C199.451 144.052 200.137 143.65 200.586 142.847L202.192 143.554C201.86 144.25 201.362 144.807 200.699 145.224C200.046 145.631 199.318 145.834 198.515 145.834C197.358 145.834 196.373 145.433 195.56 144.63C194.757 143.816 194.355 142.831 194.355 141.675C194.355 140.53 194.757 139.555 195.56 138.752C196.373 137.949 197.358 137.548 198.515 137.548C199.178 137.548 199.81 137.714 200.41 138.046C201.009 138.367 201.502 138.785 201.887 139.298L200.538 140.31C200.003 139.657 199.334 139.331 198.531 139.331C197.878 139.331 197.321 139.561 196.861 140.021C196.4 140.471 196.17 141.022 196.17 141.675C196.17 142.339 196.395 142.901 196.845 143.361C197.305 143.822 197.867 144.052 198.531 144.052Z" fill="black"/>
<path d="M203.757 145.77C203.522 145.77 203.324 145.695 203.163 145.545C203.002 145.385 202.922 145.197 202.922 144.983C202.922 144.758 203.002 144.566 203.163 144.405C203.324 144.245 203.522 144.164 203.757 144.164C203.961 144.164 204.143 144.25 204.303 144.421C204.464 144.582 204.544 144.769 204.544 144.983C204.544 145.197 204.464 145.385 204.303 145.545C204.153 145.695 203.971 145.77 203.757 145.77Z" fill="#1DDFA6"/>
</svg>
