<svg width="44" height="46" viewBox="0 0 44 46" fill="none" xmlns="http://www.w3.org/2000/svg">
<path d="M33.8645 23.0601C33.4337 13.6873 26.1022 8.99711 22.4903 7.82362C24.5947 7.09814 28.045 7.02593 30.5804 7.42365C33.1159 7.82137 37.642 9.75585 39.6793 12.478C41.7166 15.2002 44.7837 18.7088 43.816 27.2601C43.0419 34.1011 38.2552 39.1129 35.9586 40.7636C35.1291 41.6184 32.2577 43.6877 27.4081 45.1262C21.3462 46.9243 14.5653 44.493 11.872 43.2561C9.71734 42.2666 6.74377 39.4403 5.52631 38.1508C5.09446 37.6663 3.87341 36.0841 2.44401 33.6316C1.45056 31.9271 0.822288 29.156 0.478406 26.9449C0.311379 26.1555 0.201383 25.3292 0.183157 24.4949C0.231356 25.1121 0.3275 25.9746 0.478406 26.9449C0.986788 29.3475 2.02351 31.408 2.60906 32.311C8.71757 40.6516 13.7337 40.6795 18.8249 40.4302C23.916 40.1809 34.4029 34.7761 33.8645 23.0601Z" fill="#1DDFA6"/>
<path d="M10.1381 22.7066C10.569 32.0795 17.9025 36.7697 21.5153 37.9432C19.4104 38.6687 15.9591 38.7409 13.4231 38.3432C10.887 37.9455 6.35971 36.0109 4.32187 33.2887C2.28404 30.5666 -0.78389 27.0579 0.183992 18.5065C0.958298 11.6655 5.7462 6.65371 8.04336 5.00296C8.87309 4.14815 11.7452 2.07892 16.596 0.64044C22.6595 -1.15766 29.4422 1.27364 32.1361 2.51056C34.2913 3.5001 37.2657 6.32644 38.4834 7.61592C38.9154 8.10045 40.1368 9.68264 41.5665 12.1352C42.5603 13.8398 43.1887 16.6108 43.5327 18.822C43.6998 19.6113 43.8098 20.4376 43.828 21.2719C43.7798 20.6547 43.6836 19.7923 43.5327 18.822C43.0242 16.4193 41.9872 14.3588 41.4015 13.4558C35.2913 5.11514 30.274 5.08718 25.1815 5.33646C20.089 5.58575 9.59949 10.9906 10.1381 22.7066Z" fill="#03309F"/>
</svg>
